<?xml version="1.0" encoding="UTF-8"?>
<svg id="Layer_1" xmlns="http://www.w3.org/2000/svg" version="1.1" viewBox="0 0 600 200">
  <!-- Generator: Adobe Illustrator 30.1.0, SVG Export Plug-In . SVG Version: 2.1.1 Build 136)  -->
  <defs>
    <style>
      .st0 {
        fill: #231f20;
      }

      .st1 {
        fill: #fff;
      }

      .st2 {
        fill: none;
        stroke: #034525;
        stroke-miterlimit: 10;
        stroke-width: .5px;
      }
    </style>
  </defs>
  <g>
    <path class="st1" d="M145.26,112.46h.57c.38,2.51.87,4.63,1.48,6.35.61,1.72,1.27,3.14,2,4.26.73,1.12,1.49,1.98,2.29,2.58.8.6,1.6,1.05,2.42,1.33.81.28,1.59.44,2.34.49.74.05,1.45.07,2.1.07,1.84,0,3.34-.37,4.52-1.12,1.18-.74,2.11-1.69,2.81-2.83.69-1.14,1.18-2.37,1.45-3.7.28-1.33.42-2.55.42-3.67,0-1.63-.23-3.02-.68-4.19-.45-1.16-1.02-2.15-1.71-2.97-.69-.81-1.45-1.48-2.26-1.99-.81-.51-1.58-.91-2.31-1.19l-5.97-2.44c-2.8-1.16-4.93-2.7-6.36-4.61-1.44-1.91-2.16-4.47-2.16-7.68,0-2.09.28-4.04.83-5.83.55-1.79,1.33-3.34,2.34-4.64,1-1.3,2.21-2.33,3.61-3.07,1.4-.74,2.94-1.12,4.6-1.12,1.21,0,2.22.14,3.04.42.81.28,1.51.59,2.1.94.59.35,1.12.66,1.58.94s.94.42,1.43.42c.45,0,.75-.08.91-.24.16-.16.37-.57.65-1.22h.73v12.64h-.62c-.21-1.68-.56-3.29-1.06-4.85-.5-1.56-1.15-2.93-1.95-4.12-.8-1.19-1.76-2.14-2.88-2.86-1.13-.72-2.43-1.08-3.92-1.08-.83,0-1.75.15-2.75.45-1,.3-1.94.83-2.8,1.57-.87.75-1.58,1.72-2.16,2.93-.57,1.21-.86,2.75-.86,4.61,0,1.49.22,2.76.68,3.8.45,1.05,1.03,1.93,1.74,2.65.71.72,1.51,1.33,2.39,1.82.88.49,1.77.92,2.68,1.29l6.29,2.65c.66.28,1.49.65,2.49,1.12,1,.47,1.98,1.16,2.94,2.09.95.93,1.77,2.16,2.44,3.7.68,1.54,1.01,3.49,1.01,5.86,0,2.19-.3,4.27-.91,6.25-.61,1.98-1.48,3.72-2.62,5.23-1.14,1.51-2.53,2.72-4.16,3.63-1.63.91-3.46,1.36-5.51,1.36-.73,0-1.37-.01-1.92-.04-.55-.02-1.07-.08-1.56-.17-.49-.09-.97-.2-1.45-.31-.49-.12-1.02-.29-1.61-.52-.69-.28-1.44-.6-2.23-.98-.8-.37-1.49-.56-2.08-.56-.52,0-.88.14-1.07.42-.19.28-.36.65-.49,1.12h-.78v-15.01Z"/>
    <path class="st1" d="M178.61,102.54c0-3.72.55-7.17,1.64-10.33,1.09-3.16,2.49-5.91,4.21-8.24,1.71-2.33,3.64-4.15,5.79-5.48,2.15-1.33,4.29-1.99,6.44-1.99,2.29,0,4.51.66,6.68,1.99,2.16,1.33,4.1,3.15,5.79,5.48,1.7,2.33,3.06,5.07,4.08,8.24,1.02,3.16,1.53,6.61,1.53,10.33,0,3.26-.47,6.45-1.4,9.56-.94,3.12-2.22,5.89-3.84,8.31-1.63,2.42-3.54,4.37-5.74,5.86-2.2,1.49-4.56,2.23-7.09,2.23s-5-.72-7.22-2.16c-2.22-1.44-4.13-3.36-5.74-5.76-1.61-2.4-2.87-5.17-3.77-8.31-.9-3.14-1.35-6.39-1.35-9.74ZM184.58,102.54c0,4.19.21,7.84.62,10.96.42,3.12,1.11,5.73,2.08,7.82.97,2.09,2.22,3.65,3.74,4.68,1.52,1.02,3.41,1.54,5.66,1.54s4.1-.51,5.64-1.54c1.54-1.02,2.8-2.58,3.77-4.68.97-2.09,1.66-4.7,2.08-7.82.42-3.12.62-6.77.62-10.96,0-3.21-.16-6.32-.47-9.32-.31-3-.91-5.68-1.79-8.03-.88-2.35-2.11-4.22-3.69-5.62-1.58-1.4-3.63-2.09-6.16-2.09s-4.58.7-6.16,2.09c-1.58,1.4-2.81,3.27-3.69,5.62-.88,2.35-1.48,5.03-1.79,8.03-.31,3-.47,6.11-.47,9.32Z"/>
    <path class="st1" d="M218.92,126.49h5.77v-47.75h-5.77v-.98h16.73v.98h-5.77v47.75h9.25c3.05,0,5.44-1.28,7.17-3.84,1.73-2.56,3-6.05,3.79-10.47h.57v15.29h-31.74v-.98Z"/>
    <path class="st1" d="M253.73,126.49h5.77v-47.75h-5.77v-.98h16.73v.98h-5.77v47.75h5.77v.98h-16.73v-.98Z"/>
    <path class="st1" d="M272.79,126.49h5.77v-47.75h-5.77v-.98h9.66c.48,0,.97-.01,1.45-.03.48-.02.97-.06,1.45-.1.48,0,.97-.01,1.45-.03.48-.02.97-.04,1.45-.04,1.04,0,1.97.02,2.78.07.81.05,1.58.13,2.29.24.71.12,1.38.28,2.03.49.64.21,1.32.48,2.05.8,2.11.93,3.94,2.18,5.48,3.73,1.54,1.56,2.8,3.36,3.79,5.41.99,2.05,1.71,4.28,2.18,6.7.47,2.42.7,4.96.7,7.61,0,3.07-.28,5.83-.83,8.27-.55,2.44-1.32,4.61-2.29,6.49-.97,1.88-2.1,3.51-3.4,4.89-1.3,1.37-2.69,2.48-4.18,3.32-.83.51-1.62.91-2.36,1.19-.75.28-1.51.49-2.29.63-.78.14-1.64.23-2.57.28-.93.05-2.01.07-3.22.07-.52,0-1.07-.01-1.66-.04-.59-.02-1.18-.06-1.77-.1-.59-.05-1.17-.08-1.74-.1-.57-.02-1.12-.04-1.64-.04h-8.83v-.98ZM283.75,126.49c.59.09,1.27.16,2.05.21.78.05,1.64.07,2.57.07,1.18,0,2.35-.08,3.51-.25,1.16-.16,2.27-.51,3.32-1.05,1.06-.53,2.04-1.3,2.96-2.3.92-1,1.74-2.31,2.47-3.94,1.11-2.51,1.88-5.08,2.31-7.71.43-2.63.65-5.5.65-8.62,0-3.68-.26-7.02-.78-10.02-.52-3-1.38-5.56-2.57-7.68-1.2-2.12-2.78-3.76-4.75-4.92-1.97-1.16-4.42-1.75-7.32-1.75-.87,0-1.65.02-2.36.07-.71.05-1.39.09-2.05.14v47.75Z"/>
    <path class="st1" d="M330.04,112.46h.57c.38,2.51.87,4.63,1.48,6.35.61,1.72,1.27,3.14,2,4.26.73,1.12,1.49,1.98,2.29,2.58.8.6,1.6,1.05,2.42,1.33.81.28,1.59.44,2.34.49.74.05,1.45.07,2.1.07,1.84,0,3.34-.37,4.52-1.12,1.18-.74,2.11-1.69,2.81-2.83.69-1.14,1.18-2.37,1.45-3.7.28-1.33.41-2.55.41-3.67,0-1.63-.23-3.02-.68-4.19-.45-1.16-1.02-2.15-1.71-2.97-.69-.81-1.45-1.48-2.26-1.99-.81-.51-1.58-.91-2.31-1.19l-5.97-2.44c-2.81-1.16-4.93-2.7-6.36-4.61-1.44-1.91-2.16-4.47-2.16-7.68,0-2.09.28-4.04.83-5.83.55-1.79,1.33-3.34,2.34-4.64,1-1.3,2.21-2.33,3.61-3.07,1.4-.74,2.93-1.12,4.6-1.12,1.21,0,2.23.14,3.04.42s1.52.59,2.1.94c.59.35,1.12.66,1.58.94s.94.42,1.43.42c.45,0,.75-.08.91-.24.16-.16.37-.57.65-1.22h.73v12.64h-.62c-.21-1.68-.56-3.29-1.06-4.85-.5-1.56-1.15-2.93-1.95-4.12-.8-1.19-1.76-2.14-2.88-2.86-1.13-.72-2.43-1.08-3.92-1.08-.83,0-1.75.15-2.75.45-1,.3-1.94.83-2.8,1.57-.87.75-1.58,1.72-2.16,2.93-.57,1.21-.86,2.75-.86,4.61,0,1.49.23,2.76.68,3.8.45,1.05,1.03,1.93,1.74,2.65.71.72,1.51,1.33,2.39,1.82.88.49,1.77.92,2.68,1.29l6.29,2.65c.66.28,1.49.65,2.49,1.12,1,.47,1.98,1.16,2.94,2.09.95.93,1.77,2.16,2.44,3.7.68,1.54,1.01,3.49,1.01,5.86,0,2.19-.3,4.27-.91,6.25-.61,1.98-1.48,3.72-2.62,5.23-1.14,1.51-2.53,2.72-4.16,3.63-1.63.91-3.46,1.36-5.51,1.36-.73,0-1.37-.01-1.92-.04s-1.07-.08-1.56-.17c-.49-.09-.97-.2-1.45-.31-.49-.12-1.02-.29-1.61-.52-.69-.28-1.44-.6-2.23-.98-.8-.37-1.49-.56-2.08-.56-.52,0-.88.14-1.07.42s-.36.65-.49,1.12h-.78v-15.01Z"/>
    <path class="st1" d="M361.57,126.49h5.77v-47.75h-5.77v-.98h16.73v.98h-5.77v47.75h5.77v.98h-16.73v-.98Z"/>
    <path class="st1" d="M380.64,126.49h5.77v-47.75h-5.77v-.98h9.66c.48,0,.97-.01,1.45-.03.48-.02.97-.06,1.45-.1.48,0,.97-.01,1.45-.03.48-.02.97-.04,1.45-.04,1.04,0,1.97.02,2.78.07.81.05,1.58.13,2.29.24.71.12,1.38.28,2.03.49.64.21,1.32.48,2.05.8,2.11.93,3.94,2.18,5.48,3.73,1.54,1.56,2.8,3.36,3.79,5.41.99,2.05,1.71,4.28,2.18,6.7.47,2.42.7,4.96.7,7.61,0,3.07-.28,5.83-.83,8.27-.55,2.44-1.32,4.61-2.29,6.49-.97,1.88-2.1,3.51-3.4,4.89-1.3,1.37-2.69,2.48-4.18,3.32-.83.51-1.62.91-2.36,1.19-.75.28-1.51.49-2.29.63-.78.14-1.64.23-2.57.28-.93.05-2.01.07-3.22.07-.52,0-1.07-.01-1.66-.04-.59-.02-1.18-.06-1.77-.1-.59-.05-1.17-.08-1.74-.1-.57-.02-1.12-.04-1.64-.04h-8.83v-.98ZM391.6,126.49c.59.09,1.27.16,2.05.21.78.05,1.64.07,2.57.07,1.18,0,2.35-.08,3.51-.25,1.16-.16,2.27-.51,3.32-1.05,1.06-.53,2.04-1.3,2.96-2.3.92-1,1.74-2.31,2.47-3.94,1.11-2.51,1.88-5.08,2.31-7.71.43-2.63.65-5.5.65-8.62,0-3.68-.26-7.02-.78-10.02-.52-3-1.38-5.56-2.57-7.68-1.2-2.12-2.78-3.76-4.75-4.92-1.97-1.16-4.42-1.75-7.32-1.75-.87,0-1.65.02-2.36.07-.71.05-1.39.09-2.05.14v47.75Z"/>
    <path class="st1" d="M422.04,126.49h5.77v-47.75h-5.77v-.98h29.72v12.08h-.57c-.45-1.82-.94-3.41-1.45-4.78-.52-1.37-1.14-2.54-1.87-3.49-.73-.95-1.59-1.66-2.6-2.13-1-.46-2.22-.7-3.64-.7h-8.62v21.57h3.38c1.14,0,2.11-.14,2.91-.42.8-.28,1.48-.8,2.05-1.57.57-.77,1.06-1.82,1.45-3.14.4-1.33.79-3.04,1.17-5.13h.57v21.71h-.57c-.24-1.35-.49-2.65-.75-3.91-.26-1.26-.62-2.37-1.09-3.35-.47-.98-1.09-1.76-1.87-2.34-.78-.58-1.79-.87-3.04-.87h-4.21v25.2h9.82c1.9,0,3.49-.55,4.75-1.64,1.26-1.09,2.29-2.4,3.09-3.91.8-1.51,1.38-3.08,1.77-4.71.38-1.63.62-2.98.73-4.05h.57v15.29h-31.69v-.98Z"/>
  </g>
  <path class="st2" d="M299.49,152.75"/>
  <path class="st0" d="M299.49,52.27"/>
</svg>