<?xml version="1.0" encoding="UTF-8"?>
<svg id="Layer_1" xmlns="http://www.w3.org/2000/svg" version="1.1" viewBox="0 0 841.89 1190.55">
  <!-- Generator: Adobe Illustrator 30.1.0, SVG Export Plug-In . SVG Version: 2.1.1 Build 136)  -->
  <defs>
    <style>
      .st0 {
        fill: #231f20;
      }

      .st1 {
        font-size: 32px;
        letter-spacing: -.02em;
      }

      .st1, .st2 {
        fill: #f1f2f2;
        font-family: Didot, Didot;
      }

      .st3 {
        fill: #0099d3;
      }

      .st2 {
        font-size: 52px;
        letter-spacing: -.02em;
      }

      .st4 {
        fill: none;
        stroke: #034525;
        stroke-miterlimit: 10;
        stroke-width: .5px;
      }
    </style>
  </defs>
  <text class="st2" transform="translate(262.91 615.1)"><tspan x="0" y="0">SOLID SIDE</tspan></text>
  <path class="st4" d="M420.94,663.86"/>
  <path class="st0" d="M420.94,562.58"/>
  <text class="st1" transform="translate(357.44 675.66)"><tspan x="0" y="0">Law firm</tspan></text>
  <path class="st3" d="M461.41,562.63c-19.16-35.41-18.21-64.17,29.25-64.59,53.69.51,131.61,28.95,179.18,54.23,2.74,1.53,5.46,3.12,8.11,4.82,2.59,1.77,5.41,3.4,7.32,5.94.07.11-.1.22-.17.11-1.97-2.42-4.83-3.94-7.44-5.58-2.7-1.59-5.46-3.06-8.25-4.48-39.33-19.29-80.81-34.49-123.17-45.66-18.2-4.46-36.78-8.15-55.57-8.23-31.92-.06-48.25,13.49-36.67,46.16,2.07,5.91,4.71,11.62,7.59,17.18.07.11-.12.21-.18.09h0Z"/>
  <path class="st3" d="M153.5,621.29c65.94,70.82,221.74,106.7,315.54,91.42,3.02-.56,8.05-1.53,11.02-2.39,3.68-.82,7.21-2.12,10.81-3.26.05-.02.12,0,.13.06-6.72,2.89-14.53,4.9-21.79,6.48-92.79,17.97-251.96-21.19-315.71-92.32h0Z"/>
  <path class="st3" d="M513.88,645.03c27.31,34.99,28.15,66.49-19.12,80.85-22.37,6.72-45.83,8.27-69.04,8.62-29.01.25-58.04-1.9-86.72-6.2-5.59-1.01-11.38-1.55-16.75-3.46-.09-.04-.13-.18-.01-.21-.11.04-.07.16.02.2,5.41,1.71,11.21,2.07,16.81,2.95,47.13,5.43,128.78,11.17,171.12-10,33.77-17.38,21.57-48.02,3.68-72.75h0Z"/>
  <text/>
</svg>