<?xml version="1.0" encoding="UTF-8"?>
<svg id="Layer_1" xmlns="http://www.w3.org/2000/svg" version="1.1" viewBox="0 0 837.38 743">
  <!-- Generator: Adobe Illustrator 30.1.0, SVG Export Plug-In . SVG Version: 2.1.1 Build 136)  -->
  <defs>
    <style>
      .st0 {
        fill: #231f20;
      }

      .st1 {
        fill: #0099d3;
      }

      .st2, .st3, .st4 {
        isolation: isolate;
      }

      .st3 {
        font-size: 27px;
      }

      .st3, .st4 {
        fill: #fff;
        font-family: Didot, Didot;
      }

      .st4 {
        font-size: 15px;
      }

      .st5 {
        fill: none;
        stroke: #034525;
        stroke-miterlimit: 10;
        stroke-width: .5px;
      }
    </style>
  </defs>
  <path class="st5" d="M412.78,419.08"/>
  <path class="st0" d="M412.78,317.8"/>
  <g>
    <path class="st1" d="M474.63,302c-23.31-43.07-22.15-78.06,35.58-78.57,65.31.62,160.09,35.22,217.96,65.97,3.33,1.86,6.64,3.8,9.87,5.86,3.15,2.15,6.58,4.14,8.9,7.23.09.13-.12.27-.21.13-2.4-2.94-5.88-4.79-9.05-6.79-3.28-1.93-6.64-3.72-10.04-5.45-47.84-23.46-98.3-41.95-149.83-55.54-22.14-5.43-44.74-9.91-67.6-10.01-38.83-.07-58.69,16.41-44.61,56.15,2.52,7.19,5.73,14.13,9.23,20.9.09.13-.15.26-.22.11h.02Z"/>
    <path class="st1" d="M100.09,373.36c80.21,86.15,269.73,129.79,383.83,111.21,3.67-.68,9.79-1.86,13.4-2.91,4.48-1,8.77-2.58,13.15-3.97.06-.02.15,0,.16.07-8.17,3.52-17.67,5.96-26.51,7.88-112.87,21.86-306.49-25.78-384.04-112.3h0v.02Z"/>
    <path class="st1" d="M538.45,402.23c33.22,42.56,34.24,80.88-23.26,98.35-27.21,8.17-55.75,10.06-83.98,10.49-35.29.3-70.6-2.31-105.49-7.54-6.8-1.23-13.84-1.89-20.38-4.21-.11-.05-.16-.22-.01-.26-.13.05-.09.19.02.24,6.58,2.08,13.64,2.52,20.45,3.59,57.33,6.61,156.65,13.59,208.15-12.16,41.08-21.14,26.24-58.41,4.48-88.49h.02Z"/>
  </g>
  <g class="st2">
    <text class="st3" transform="translate(122.32 345.04)"><tspan x="0" y="0">PROFESIONÁLNE PRÁVNE PORADENSTVO</tspan></text>
  </g>
  <g class="st2">
    <text class="st4" transform="translate(223.61 382.31)"><tspan x="0" y="0">postavené na skúsenostiach, dôvere a osobnom prístupe </tspan></text>
    <text class="st4" transform="translate(340.84 400.31)"><tspan x="0" y="0">ku každému klientovi</tspan></text>
  </g>
</svg>